<svg width="40" height="40" viewBox="0 0 40 40" fill="none" xmlns="http://www.w3.org/2000/svg">
<g clip-path="url(#clip0_148_301)">
<rect width="40" height="40" rx="8" fill="#02040D"/>
<path d="M14.072 27.48C12.824 27.48 11.768 27.2453 10.904 26.776C10.04 26.296 9.384 25.6613 8.936 24.872C8.49867 24.0827 8.28 23.2133 8.28 22.264C8.28 21.432 8.41867 20.6853 8.696 20.024C8.97333 19.352 9.4 18.776 9.976 18.296C10.552 17.8053 11.2987 17.4053 12.216 17.096C12.9093 16.872 13.72 16.6693 14.648 16.488C15.5867 16.3067 16.6 16.1413 17.688 15.992C18.7867 15.832 19.9333 15.6613 21.128 15.48L19.752 16.264C19.7627 15.0693 19.496 14.1893 18.952 13.624C18.408 13.0587 17.4907 12.776 16.2 12.776C15.4213 12.776 14.6693 12.9573 13.944 13.32C13.2187 13.6827 12.712 14.3067 12.424 15.192L8.904 14.088C9.33067 12.6267 10.1413 11.4533 11.336 10.568C12.5413 9.68267 14.1627 9.24 16.2 9.24C17.736 9.24 19.0853 9.49067 20.248 9.992C21.4213 10.4933 22.2907 11.3147 22.856 12.456C23.1653 13.064 23.352 13.688 23.416 14.328C23.48 14.9573 23.512 15.6453 23.512 16.392V27H20.136V23.256L20.696 23.864C19.9173 25.112 19.0053 26.0293 17.96 26.616C16.9253 27.192 15.6293 27.48 14.072 27.48ZM14.84 24.408C15.7147 24.408 16.4613 24.2533 17.08 23.944C17.6987 23.6347 18.1893 23.256 18.552 22.808C18.9253 22.36 19.176 21.9387 19.304 21.544C19.5067 21.0533 19.6187 20.4933 19.64 19.864C19.672 19.224 19.688 18.7067 19.688 18.312L20.872 18.664C19.7093 18.8453 18.712 19.0053 17.88 19.144C17.048 19.2827 16.3333 19.416 15.736 19.544C15.1387 19.6613 14.6107 19.7947 14.152 19.944C13.704 20.104 13.3253 20.2907 13.016 20.504C12.7067 20.7173 12.4667 20.9627 12.296 21.24C12.136 21.5173 12.056 21.8427 12.056 22.216C12.056 22.6427 12.1627 23.0213 12.376 23.352C12.5893 23.672 12.8987 23.928 13.304 24.12C13.72 24.312 14.232 24.408 14.84 24.408Z" fill="white"/>
<path d="M24.744 32.48C22.9627 32.48 21.4427 32.0853 20.184 31.296C18.9253 30.496 17.96 29.408 17.288 28.032C16.6267 26.656 16.2907 25.0987 16.28 23.36C16.2907 21.5893 16.6373 20.0213 17.32 18.656C18.0133 17.28 18.9947 16.2027 20.264 15.424C21.5333 14.6347 23.0427 14.24 24.792 14.24C26.7547 14.24 28.4133 14.736 29.768 15.728C31.1333 16.7093 32.024 18.0533 32.44 19.76L28.6 20.8C28.3013 19.872 27.8053 19.152 27.112 18.64C26.4187 18.1173 25.6293 17.856 24.744 17.856C23.7413 17.856 22.9147 18.096 22.264 18.576C21.6133 19.0453 21.1333 19.696 20.824 20.528C20.5147 21.36 20.36 22.304 20.36 23.36C20.36 25.0027 20.728 26.3307 21.464 27.344C22.2 28.3573 23.2933 28.864 24.744 28.864C25.768 28.864 26.5733 28.6293 27.16 28.16C27.7573 27.6907 28.2053 27.0133 28.504 26.128L32.44 27.008C31.9067 28.768 30.9733 30.1227 29.64 31.072C28.3067 32.0107 26.6747 32.48 24.744 32.48Z" fill="#5D39ED"/>
</g>
<defs>
<clipPath id="clip0_148_301">
<rect width="40" height="40" rx="8" fill="white"/>
</clipPath>
</defs>
</svg>
